<mxfile modified="2022-12-03T21:37:42.054Z" host="app.diagrams.net" agent="5.0 (Macintosh; Intel Mac OS X 10_15_7) AppleWebKit/605.1.15 (KHTML, like Gecko) Version/16.1 Safari/605.1.15" etag="haWayyYDKJkxsq1l0CYm" version="20.6.0" type="github" pages="6">
  <diagram id="VjomX15xuYtD5MLgN6QB" name="Agenda">
    <mxGraphModel dx="1426" dy="823" grid="0" gridSize="10" guides="1" tooltips="1" connect="1" arrows="1" fold="1" page="1" pageScale="1" pageWidth="850" pageHeight="1100" math="0" shadow="0">
      <root>
        <mxCell id="0" />
        <mxCell id="1" parent="0" />
        <mxCell id="RGwa3ZNCP71L5T_SxQl2-1" value="Agenda" style="text;html=1;strokeColor=none;fillColor=none;align=center;verticalAlign=middle;whiteSpace=wrap;rounded=0;shadow=0;fontSize=18;fontStyle=1" parent="1" vertex="1">
          <mxGeometry x="126" y="128" width="60" height="30" as="geometry" />
        </mxCell>
        <mxCell id="RGwa3ZNCP71L5T_SxQl2-2" value="&lt;u&gt;Meeting Kick-off&lt;/u&gt;" style="text;html=1;strokeColor=none;fillColor=none;align=left;verticalAlign=middle;whiteSpace=wrap;rounded=0;shadow=0;fontSize=18;" parent="1" vertex="1">
          <mxGeometry x="120" y="220" width="480" height="30" as="geometry" />
        </mxCell>
        <mxCell id="RGwa3ZNCP71L5T_SxQl2-6" value="&lt;u&gt;Requirements &amp;amp; High-Level Architecture&lt;/u&gt;" style="text;html=1;strokeColor=none;fillColor=none;align=left;verticalAlign=middle;whiteSpace=wrap;rounded=0;shadow=0;fontSize=18;" parent="1" vertex="1">
          <mxGeometry x="120" y="280" width="480" height="30" as="geometry" />
        </mxCell>
        <mxCell id="RGwa3ZNCP71L5T_SxQl2-7" value="&lt;u&gt;Solutions Architecture&lt;/u&gt;" style="text;html=1;strokeColor=none;fillColor=none;align=left;verticalAlign=middle;whiteSpace=wrap;rounded=0;shadow=0;fontSize=18;" parent="1" vertex="1">
          <mxGeometry x="120" y="460" width="480" height="30" as="geometry" />
        </mxCell>
        <mxCell id="RGwa3ZNCP71L5T_SxQl2-8" value="&lt;u&gt;Summary &amp;amp; Next Steps&lt;/u&gt;" style="text;html=1;strokeColor=none;fillColor=none;align=left;verticalAlign=middle;whiteSpace=wrap;rounded=0;shadow=0;fontSize=18;" parent="1" vertex="1">
          <mxGeometry x="120" y="597" width="480" height="30" as="geometry" />
        </mxCell>
        <mxCell id="RGwa3ZNCP71L5T_SxQl2-9" value="Conceptual architecture" style="text;html=1;strokeColor=none;fillColor=none;align=left;verticalAlign=middle;whiteSpace=wrap;rounded=0;shadow=0;fontSize=18;" parent="1" vertex="1">
          <mxGeometry x="160" y="500" width="480" height="30" as="geometry" />
        </mxCell>
        <mxCell id="RGwa3ZNCP71L5T_SxQl2-10" value="Solutions architecture (outline)" style="text;html=1;strokeColor=none;fillColor=none;align=left;verticalAlign=middle;whiteSpace=wrap;rounded=0;shadow=0;fontSize=18;" parent="1" vertex="1">
          <mxGeometry x="160" y="540" width="480" height="30" as="geometry" />
        </mxCell>
        <mxCell id="RGwa3ZNCP71L5T_SxQl2-11" value="High-level requirements" style="text;html=1;strokeColor=none;fillColor=none;align=left;verticalAlign=middle;whiteSpace=wrap;rounded=0;shadow=0;fontSize=18;" parent="1" vertex="1">
          <mxGeometry x="160" y="320" width="480" height="30" as="geometry" />
        </mxCell>
        <mxCell id="RGwa3ZNCP71L5T_SxQl2-12" value="&lt;span style=&quot;caret-color: rgb(0, 0, 0); color: rgb(0, 0, 0); font-family: Helvetica; font-size: 18px; font-style: normal; font-variant-caps: normal; font-weight: 400; letter-spacing: normal; text-align: left; text-indent: 0px; text-transform: none; word-spacing: 0px; -webkit-text-stroke-width: 0px; background-color: rgb(248, 249, 250); text-decoration: none; float: none; display: inline !important;&quot;&gt;Future state&lt;/span&gt;" style="text;html=1;strokeColor=none;fillColor=none;align=left;verticalAlign=middle;whiteSpace=wrap;rounded=0;shadow=0;fontSize=18;" parent="1" vertex="1">
          <mxGeometry x="160" y="400" width="480" height="30" as="geometry" />
        </mxCell>
        <mxCell id="dw6q_YZNpKW3-IFjIILA-1" value="&lt;font style=&quot;font-size: 16px;&quot;&gt;2022-12-02&lt;/font&gt;" style="text;html=1;strokeColor=none;fillColor=none;align=left;verticalAlign=middle;whiteSpace=wrap;rounded=0;dashed=1;labelBackgroundColor=#FFFFFF;fontSize=24;fontColor=#000000;" parent="1" vertex="1">
          <mxGeometry x="724" y="148" width="143" height="30" as="geometry" />
        </mxCell>
        <mxCell id="dw6q_YZNpKW3-IFjIILA-2" value="&lt;font style=&quot;font-size: 32px;&quot;&gt;AnyCompany/AWS&lt;/font&gt;" style="text;html=1;strokeColor=none;fillColor=none;align=left;verticalAlign=middle;whiteSpace=wrap;rounded=0;shadow=0;fontSize=18;fontStyle=1" parent="1" vertex="1">
          <mxGeometry x="96" y="54" width="329" height="29" as="geometry" />
        </mxCell>
        <mxCell id="uuZfknn4TFi3_fV7vghA-1" value="&lt;span style=&quot;caret-color: rgb(0, 0, 0); color: rgb(0, 0, 0); font-family: Helvetica; font-size: 18px; font-style: normal; font-variant-caps: normal; font-weight: 400; letter-spacing: normal; text-align: left; text-indent: 0px; text-transform: none; word-spacing: 0px; -webkit-text-stroke-width: 0px; background-color: rgb(248, 249, 250); text-decoration: none; float: none; display: inline !important;&quot;&gt;Current state&lt;/span&gt;" style="text;html=1;strokeColor=none;fillColor=none;align=left;verticalAlign=middle;whiteSpace=wrap;rounded=0;shadow=0;fontSize=18;" parent="1" vertex="1">
          <mxGeometry x="160" y="360" width="480" height="30" as="geometry" />
        </mxCell>
        <mxCell id="n0qJ1ygji1D-xMga5_Ut-1" value="&lt;h1&gt;Toby Fotherby&lt;/h1&gt;&lt;p&gt;Sr. AI/ML Specialist Solutions Architect&lt;/p&gt;&lt;p&gt;fotherby@amazon.com&lt;/p&gt;" style="text;html=1;strokeColor=none;fillColor=none;spacing=5;spacingTop=-20;whiteSpace=wrap;overflow=hidden;rounded=0;" parent="1" vertex="1">
          <mxGeometry x="721" y="23" width="240" height="120" as="geometry" />
        </mxCell>
        <mxCell id="LAZuoe24PW7PGoXKEOxe-1" value="&lt;h1 style=&quot;font-size: 20px;&quot;&gt;&lt;font style=&quot;font-size: 20px;&quot;&gt;Meeting Notes&lt;/font&gt;&lt;/h1&gt;&lt;h1 style=&quot;font-size: 20px;&quot;&gt;&lt;ul&gt;&lt;li&gt;&lt;font style=&quot;font-size: 18px;&quot;&gt;&lt;span style=&quot;font-weight: normal;&quot;&gt;Lorem ipsum ...&lt;/span&gt;&lt;br&gt;&lt;/font&gt;&lt;/li&gt;&lt;li style=&quot;font-size: 20px;&quot;&gt;&lt;span style=&quot;font-weight: 400;&quot;&gt;&lt;font style=&quot;font-size: 18px;&quot;&gt;Lorem ipsum ...&lt;/font&gt;&lt;/span&gt;&lt;br&gt;&lt;/li&gt;&lt;li style=&quot;font-size: 20px;&quot;&gt;&lt;span style=&quot;font-weight: 400;&quot;&gt;&lt;font style=&quot;font-size: 18px;&quot;&gt;&lt;br&gt;&lt;/font&gt;&lt;/span&gt;&lt;/li&gt;&lt;/ul&gt;&lt;/h1&gt;" style="text;html=1;strokeColor=default;fillColor=none;spacing=5;spacingTop=-20;whiteSpace=wrap;overflow=hidden;rounded=0;shadow=0;" parent="1" vertex="1">
          <mxGeometry x="718.5" y="232" width="480" height="587" as="geometry" />
        </mxCell>
      </root>
    </mxGraphModel>
  </diagram>
  <diagram name="H-L Reqs." id="h9jbHCem-ycJ2uZCTOwV">
    <mxGraphModel dx="1426" dy="823" grid="0" gridSize="10" guides="1" tooltips="1" connect="1" arrows="1" fold="1" page="1" pageScale="1" pageWidth="850" pageHeight="1100" math="0" shadow="0">
      <root>
        <mxCell id="9m_CjEebkvtOnrXl-hu_-0" />
        <mxCell id="9m_CjEebkvtOnrXl-hu_-1" parent="9m_CjEebkvtOnrXl-hu_-0" />
        <mxCell id="AXn1gOnWAieejqgXZwlD-0" value="&lt;h1&gt;High-Level Requirements&lt;/h1&gt;&lt;p&gt;&lt;b&gt;&lt;br&gt;&lt;/b&gt;&lt;/p&gt;&lt;p&gt;Enable third party business analysts to generate and validate reports on AnyCompany data without risk of leakage of PII and customer sensitive data&lt;br&gt;&lt;/p&gt;&lt;p&gt;&lt;/p&gt;Facilitate the transition the in-house team use scrubbed data, with an option to revert scrubbed data to the original text for debugging and specific analytics&lt;br&gt;&lt;br&gt;Empower AnyCompany to develop its own AI/ML solutions for data protection and operational improvements&lt;br&gt;&lt;br&gt;&lt;br&gt;&lt;p&gt;&lt;/p&gt;" style="text;html=1;strokeColor=none;fillColor=none;spacing=5;spacingTop=-20;whiteSpace=wrap;overflow=hidden;rounded=0;shadow=0;labelBorderColor=none;fontSize=18;fontColor=#000000;" parent="9m_CjEebkvtOnrXl-hu_-1" vertex="1">
          <mxGeometry x="70" y="90" width="680" height="530" as="geometry" />
        </mxCell>
      </root>
    </mxGraphModel>
  </diagram>
  <diagram id="25lp0CtglmJZi7T5T5F2" name="Current State">
    <mxGraphModel dx="1426" dy="823" grid="1" gridSize="10" guides="1" tooltips="1" connect="1" arrows="1" fold="1" page="1" pageScale="1" pageWidth="850" pageHeight="1100" math="0" shadow="0">
      <root>
        <mxCell id="0" />
        <mxCell id="1" parent="0" />
        <mxCell id="h1IbnTh46kwvZ-l_5gWV-3" value="Operational Systems" style="swimlane;whiteSpace=wrap;html=1;shadow=0;strokeColor=default;fontSize=18;startSize=40;dashed=1;" parent="1" vertex="1">
          <mxGeometry x="59" y="80" width="180" height="540" as="geometry" />
        </mxCell>
        <mxCell id="gpUl1PO_aZrQJFSE_oQn-3" value="Interactive&lt;br&gt;Call Center" style="rounded=1;whiteSpace=wrap;html=1;shadow=0;strokeColor=default;fontSize=18;" parent="h1IbnTh46kwvZ-l_5gWV-3" vertex="1">
          <mxGeometry x="21" y="80" width="140" height="60" as="geometry" />
        </mxCell>
        <mxCell id="gpUl1PO_aZrQJFSE_oQn-4" value="Email &lt;br&gt;Support" style="rounded=1;whiteSpace=wrap;html=1;shadow=0;strokeColor=default;fontSize=18;" parent="h1IbnTh46kwvZ-l_5gWV-3" vertex="1">
          <mxGeometry x="21" y="176" width="140" height="60" as="geometry" />
        </mxCell>
        <mxCell id="gpUl1PO_aZrQJFSE_oQn-6" value="..." style="rounded=1;whiteSpace=wrap;html=1;shadow=0;strokeColor=default;fontSize=18;" parent="h1IbnTh46kwvZ-l_5gWV-3" vertex="1">
          <mxGeometry x="21" y="271" width="140" height="60" as="geometry" />
        </mxCell>
        <mxCell id="h1IbnTh46kwvZ-l_5gWV-4" value="Analytic Data &lt;br&gt;Stores &amp;amp; Systems" style="swimlane;whiteSpace=wrap;html=1;shadow=0;strokeColor=default;fontSize=18;startSize=40;dashed=1;" parent="1" vertex="1">
          <mxGeometry x="642" y="80" width="180" height="540" as="geometry" />
        </mxCell>
        <mxCell id="mowawRyYY8ZYlbSnCYsi-6" value="" style="group" parent="h1IbnTh46kwvZ-l_5gWV-4" vertex="1" connectable="0">
          <mxGeometry x="20" y="140" width="140" height="116" as="geometry" />
        </mxCell>
        <mxCell id="gpUl1PO_aZrQJFSE_oQn-12" value="" style="shape=cylinder3;whiteSpace=wrap;html=1;boundedLbl=1;backgroundOutline=1;size=15;shadow=0;strokeColor=default;fontSize=18;fontColor=#9933FF;" parent="mowawRyYY8ZYlbSnCYsi-6" vertex="1">
          <mxGeometry x="5" width="130" height="116" as="geometry" />
        </mxCell>
        <mxCell id="zf8lR28jDNdzLFkF-36o-1" value="&lt;font color=&quot;#9933ff&quot;&gt;PII/Sensitive&lt;br&gt;&lt;/font&gt;&amp;amp; Ops Data" style="text;html=1;strokeColor=none;fillColor=none;align=center;verticalAlign=middle;whiteSpace=wrap;rounded=0;shadow=0;labelBorderColor=none;fontSize=18;fontColor=#000000;" parent="mowawRyYY8ZYlbSnCYsi-6" vertex="1">
          <mxGeometry y="43" width="140" height="30" as="geometry" />
        </mxCell>
        <mxCell id="h1IbnTh46kwvZ-l_5gWV-5" value="In-House &lt;br&gt;BA" style="shape=umlActor;verticalLabelPosition=bottom;verticalAlign=top;html=1;outlineConnect=0;shadow=0;fontSize=18;" parent="1" vertex="1">
          <mxGeometry x="1142" y="276" width="30" height="60" as="geometry" />
        </mxCell>
        <mxCell id="gpUl1PO_aZrQJFSE_oQn-7" value="Data Sets" style="swimlane;whiteSpace=wrap;html=1;shadow=0;strokeColor=default;fontSize=18;startSize=40;dashed=1;" parent="1" vertex="1">
          <mxGeometry x="300" y="80" width="180" height="540" as="geometry" />
        </mxCell>
        <mxCell id="gpUl1PO_aZrQJFSE_oQn-8" value="&lt;font color=&quot;#9933ff&quot;&gt;Call Logs&lt;/font&gt; &amp;amp; Operations Data" style="rounded=1;whiteSpace=wrap;html=1;shadow=0;strokeColor=default;fontSize=18;" parent="gpUl1PO_aZrQJFSE_oQn-7" vertex="1">
          <mxGeometry x="18" y="80" width="140" height="60" as="geometry" />
        </mxCell>
        <mxCell id="gpUl1PO_aZrQJFSE_oQn-9" value="&lt;font color=&quot;#9933ff&quot;&gt;Emails&lt;/font&gt; &amp;amp; Operations Data" style="rounded=1;whiteSpace=wrap;html=1;shadow=0;strokeColor=default;fontSize=18;" parent="gpUl1PO_aZrQJFSE_oQn-7" vertex="1">
          <mxGeometry x="18" y="176" width="140" height="60" as="geometry" />
        </mxCell>
        <mxCell id="fP8nqgsZxJsMwtP1_yZa-1" value="..." style="rounded=1;whiteSpace=wrap;html=1;shadow=0;strokeColor=default;fontSize=18;" parent="gpUl1PO_aZrQJFSE_oQn-7" vertex="1">
          <mxGeometry x="18" y="272" width="140" height="60" as="geometry" />
        </mxCell>
        <mxCell id="gpUl1PO_aZrQJFSE_oQn-16" value="Analytic &amp;amp; AI/ML&amp;nbsp;&lt;br&gt;Processes" style="swimlane;whiteSpace=wrap;html=1;shadow=0;strokeColor=default;fontSize=18;startSize=40;dashed=1;" parent="1" vertex="1">
          <mxGeometry x="882" y="80" width="180" height="540" as="geometry" />
        </mxCell>
        <mxCell id="gpUl1PO_aZrQJFSE_oQn-19" value="Business Analytics" style="rounded=1;whiteSpace=wrap;html=1;shadow=0;labelBorderColor=none;strokeColor=default;fontSize=18;fontColor=#000000;" parent="gpUl1PO_aZrQJFSE_oQn-16" vertex="1">
          <mxGeometry x="21" y="193" width="138" height="60" as="geometry" />
        </mxCell>
        <mxCell id="fP8nqgsZxJsMwtP1_yZa-2" value="..." style="rounded=1;whiteSpace=wrap;html=1;shadow=0;strokeColor=default;fontSize=18;" parent="gpUl1PO_aZrQJFSE_oQn-16" vertex="1">
          <mxGeometry x="23" y="268" width="140" height="60" as="geometry" />
        </mxCell>
        <mxCell id="gpUl1PO_aZrQJFSE_oQn-26" value="Analytics&lt;br&gt;Warehouse" style="text;html=1;strokeColor=none;fillColor=none;align=center;verticalAlign=middle;whiteSpace=wrap;rounded=0;shadow=0;labelBorderColor=none;fontSize=18;fontColor=#000000;" parent="1" vertex="1">
          <mxGeometry x="701" y="353" width="60" height="30" as="geometry" />
        </mxCell>
        <mxCell id="4Oo0tviDNwxsVa1uIlnn-1" value="&lt;u style=&quot;caret-color: rgb(0, 0, 0); color: rgb(0, 0, 0); font-family: Helvetica; font-size: 16px; font-style: normal; font-variant-caps: normal; font-weight: 400; letter-spacing: normal; text-align: center; text-indent: 0px; text-transform: none; word-spacing: 0px; -webkit-text-stroke-width: 0px;&quot;&gt;&lt;span style=&quot;font-size: x-large;&quot;&gt;High-Level&amp;nbsp;&lt;/span&gt;&lt;font size=&quot;5&quot;&gt;Current State&lt;/font&gt;&lt;/u&gt;" style="text;whiteSpace=wrap;html=1;" parent="1" vertex="1">
          <mxGeometry x="415" y="8" width="290" height="50" as="geometry" />
        </mxCell>
        <mxCell id="wXWGEpKx-K4ZdakGSXoy-1" value="Extract Transform&lt;br&gt;&amp;amp; Load&lt;br&gt;&lt;br&gt;&lt;br&gt;(ETL)" style="rounded=1;whiteSpace=wrap;html=1;fontSize=12;dashed=1;" parent="1" vertex="1">
          <mxGeometry x="520" y="120" width="80" height="357" as="geometry" />
        </mxCell>
        <mxCell id="1zE4fZh2yjthQmfedAI8-4" value="" style="endArrow=classic;html=1;rounded=0;fontSize=18;fontColor=#000000;entryX=0;entryY=0.5;entryDx=0;entryDy=0;strokeColor=#000000;strokeWidth=3;fillColor=#60a917;" parent="1" edge="1">
          <mxGeometry width="50" height="50" relative="1" as="geometry">
            <mxPoint x="822" y="336" as="sourcePoint" />
            <mxPoint x="882" y="336" as="targetPoint" />
          </mxGeometry>
        </mxCell>
        <mxCell id="1zE4fZh2yjthQmfedAI8-5" value="" style="endArrow=classic;html=1;rounded=0;fontSize=18;fontColor=#000000;entryX=0;entryY=0.5;entryDx=0;entryDy=0;strokeColor=#000000;strokeWidth=3;fillColor=#60a917;endFill=1;" parent="1" edge="1">
          <mxGeometry width="50" height="50" relative="1" as="geometry">
            <mxPoint x="1050" y="336" as="sourcePoint" />
            <mxPoint x="1110" y="336" as="targetPoint" />
          </mxGeometry>
        </mxCell>
        <mxCell id="mowawRyYY8ZYlbSnCYsi-1" value="" style="endArrow=classic;html=1;rounded=0;fontSize=18;fontColor=#000000;entryX=0;entryY=0.5;entryDx=0;entryDy=0;strokeColor=#9933FF;strokeWidth=3;fillColor=#60a917;" parent="1" edge="1">
          <mxGeometry width="50" height="50" relative="1" as="geometry">
            <mxPoint x="240" y="335" as="sourcePoint" />
            <mxPoint x="300" y="335" as="targetPoint" />
          </mxGeometry>
        </mxCell>
        <mxCell id="mowawRyYY8ZYlbSnCYsi-2" value="" style="endArrow=classic;html=1;rounded=0;fontSize=18;fontColor=#000000;entryX=0;entryY=0.5;entryDx=0;entryDy=0;strokeColor=#9933FF;strokeWidth=3;fillColor=#60a917;" parent="1" edge="1">
          <mxGeometry width="50" height="50" relative="1" as="geometry">
            <mxPoint x="465" y="336" as="sourcePoint" />
            <mxPoint x="525" y="336" as="targetPoint" />
          </mxGeometry>
        </mxCell>
        <mxCell id="mowawRyYY8ZYlbSnCYsi-3" value="" style="endArrow=classic;html=1;rounded=0;fontSize=18;fontColor=#000000;entryX=0;entryY=0.5;entryDx=0;entryDy=0;strokeColor=#9933FF;strokeWidth=3;fillColor=#60a917;" parent="1" edge="1">
          <mxGeometry width="50" height="50" relative="1" as="geometry">
            <mxPoint x="590" y="336" as="sourcePoint" />
            <mxPoint x="650" y="336" as="targetPoint" />
          </mxGeometry>
        </mxCell>
        <mxCell id="mowawRyYY8ZYlbSnCYsi-4" value="" style="endArrow=classic;html=1;rounded=0;fontSize=18;fontColor=#000000;entryX=0;entryY=0.5;entryDx=0;entryDy=0;strokeColor=#000000;strokeWidth=3;fillColor=#60a917;" parent="1" edge="1">
          <mxGeometry width="50" height="50" relative="1" as="geometry">
            <mxPoint x="470" y="200" as="sourcePoint" />
            <mxPoint x="530" y="200" as="targetPoint" />
          </mxGeometry>
        </mxCell>
        <mxCell id="mowawRyYY8ZYlbSnCYsi-5" value="" style="endArrow=classic;html=1;rounded=0;fontSize=18;fontColor=#000000;entryX=0;entryY=0.5;entryDx=0;entryDy=0;strokeColor=#000000;strokeWidth=3;fillColor=#60a917;" parent="1" edge="1">
          <mxGeometry width="50" height="50" relative="1" as="geometry">
            <mxPoint x="241" y="200" as="sourcePoint" />
            <mxPoint x="301" y="200" as="targetPoint" />
          </mxGeometry>
        </mxCell>
        <mxCell id="rLuqg63Hgt8XKcabhCec-3" value="" style="endArrow=classic;html=1;rounded=0;fontSize=18;fontColor=#000000;entryX=0;entryY=0.5;entryDx=0;entryDy=0;strokeColor=#000000;strokeWidth=3;fillColor=#60a917;" parent="1" edge="1">
          <mxGeometry width="50" height="50" relative="1" as="geometry">
            <mxPoint x="590" y="200" as="sourcePoint" />
            <mxPoint x="650" y="200" as="targetPoint" />
          </mxGeometry>
        </mxCell>
      </root>
    </mxGraphModel>
  </diagram>
  <diagram name="Future State" id="HBv1KzzV3jWL5Cb1V32m">
    <mxGraphModel dx="1426" dy="823" grid="1" gridSize="10" guides="1" tooltips="1" connect="1" arrows="1" fold="1" page="1" pageScale="1" pageWidth="850" pageHeight="1100" math="0" shadow="0">
      <root>
        <mxCell id="hyJC9mIuy3ANaXY3VcQb-0" />
        <mxCell id="hyJC9mIuy3ANaXY3VcQb-1" parent="hyJC9mIuy3ANaXY3VcQb-0" />
        <mxCell id="cMJbEtjQZFThihdctyKy-47" value="" style="group" parent="hyJC9mIuy3ANaXY3VcQb-1" vertex="1" connectable="0">
          <mxGeometry x="1235" y="352" width="126" height="126" as="geometry" />
        </mxCell>
        <mxCell id="hyJC9mIuy3ANaXY3VcQb-11" value="3rd Party&lt;br&gt;BA / DS" style="shape=umlActor;verticalLabelPosition=bottom;verticalAlign=top;html=1;outlineConnect=0;shadow=0;fontSize=18;" parent="cMJbEtjQZFThihdctyKy-47" vertex="1">
          <mxGeometry x="49" y="16" width="30" height="50" as="geometry" />
        </mxCell>
        <mxCell id="hC9iuBU5DZdMR2iyAppj-4" value="" style="endArrow=classic;html=1;rounded=0;fontSize=18;fontColor=#000000;entryX=0;entryY=0.5;entryDx=0;entryDy=0;strokeColor=#2D7600;strokeWidth=3;fillColor=#60a917;endFill=1;" parent="hyJC9mIuy3ANaXY3VcQb-1" edge="1">
          <mxGeometry width="50" height="50" relative="1" as="geometry">
            <mxPoint x="1186" y="418" as="sourcePoint" />
            <mxPoint x="1246" y="418" as="targetPoint" />
          </mxGeometry>
        </mxCell>
        <mxCell id="cMJbEtjQZFThihdctyKy-34" value="&lt;b&gt;Extract Transform&lt;br&gt;&amp;amp; Load&lt;br&gt;&lt;br&gt;&lt;br&gt;(ETL)&lt;/b&gt;" style="rounded=1;whiteSpace=wrap;html=1;fontSize=12;dashed=1;" parent="hyJC9mIuy3ANaXY3VcQb-1" vertex="1">
          <mxGeometry x="520" y="120" width="80" height="320" as="geometry" />
        </mxCell>
        <mxCell id="hyJC9mIuy3ANaXY3VcQb-7" value="Analytics Data Stores &amp;amp; Systems" style="swimlane;whiteSpace=wrap;html=1;shadow=0;strokeColor=default;fontSize=18;startSize=40;dashed=1;" parent="hyJC9mIuy3ANaXY3VcQb-1" vertex="1">
          <mxGeometry x="782" y="80" width="180" height="479" as="geometry" />
        </mxCell>
        <mxCell id="O4PE7a0Fi9K-1KhrLcxD-1" value="AI/ML&lt;br&gt;Tools &amp;amp; Infra." style="rounded=1;whiteSpace=wrap;html=1;shadow=0;fontSize=18;" parent="hyJC9mIuy3ANaXY3VcQb-7" vertex="1">
          <mxGeometry x="20" y="362" width="140" height="60" as="geometry" />
        </mxCell>
        <mxCell id="ia0AlMXWDNswG1ZiIBuI-4" value="" style="group" parent="hyJC9mIuy3ANaXY3VcQb-7" vertex="1" connectable="0">
          <mxGeometry x="20" y="120" width="140" height="124" as="geometry" />
        </mxCell>
        <mxCell id="0Jkv3jb7glhRKEIvXEkH-0" value="" style="shape=cylinder3;whiteSpace=wrap;html=1;boundedLbl=1;backgroundOutline=1;size=15;shadow=0;fontSize=18;" parent="ia0AlMXWDNswG1ZiIBuI-4" vertex="1">
          <mxGeometry x="13" width="120" height="124" as="geometry" />
        </mxCell>
        <mxCell id="gAzMdX1-zWV9BWONYZ82-0" value="&lt;font color=&quot;#009900&quot;&gt;Scrubbed&lt;/font&gt;&lt;br&gt;&amp;amp; Ops Data" style="text;html=1;strokeColor=none;fillColor=none;align=center;verticalAlign=middle;whiteSpace=wrap;rounded=0;shadow=0;labelBorderColor=none;fontSize=18;fontColor=#000000;" parent="ia0AlMXWDNswG1ZiIBuI-4" vertex="1">
          <mxGeometry y="51" width="140" height="30" as="geometry" />
        </mxCell>
        <mxCell id="hyJC9mIuy3ANaXY3VcQb-17" value="Analytic &amp;amp; AI/ML&lt;br&gt;Processes" style="swimlane;whiteSpace=wrap;html=1;shadow=0;strokeColor=default;fontSize=18;startSize=40;dashed=1;" parent="hyJC9mIuy3ANaXY3VcQb-1" vertex="1">
          <mxGeometry x="1022" y="80" width="180" height="480" as="geometry" />
        </mxCell>
        <mxCell id="hyJC9mIuy3ANaXY3VcQb-19" value="Business Analytics" style="rounded=1;whiteSpace=wrap;html=1;shadow=0;labelBorderColor=none;fontSize=18;" parent="hyJC9mIuy3ANaXY3VcQb-17" vertex="1">
          <mxGeometry x="30" y="99" width="120" height="60" as="geometry" />
        </mxCell>
        <mxCell id="hyJC9mIuy3ANaXY3VcQb-21" value="AI/ML" style="rounded=1;whiteSpace=wrap;html=1;shadow=0;labelBorderColor=none;fontSize=18;" parent="hyJC9mIuy3ANaXY3VcQb-17" vertex="1">
          <mxGeometry x="30" y="362" width="120" height="60" as="geometry" />
        </mxCell>
        <mxCell id="ElxA8o0fKQ1-Yx0iaPZt-0" value="&lt;u&gt;&lt;span style=&quot;font-size: x-large;&quot;&gt;High-Level&amp;nbsp;&lt;/span&gt;&lt;font size=&quot;5&quot;&gt;Future State&lt;/font&gt;&lt;/u&gt;" style="text;html=1;strokeColor=none;fillColor=none;align=center;verticalAlign=middle;whiteSpace=wrap;rounded=0;fontSize=16;" parent="hyJC9mIuy3ANaXY3VcQb-1" vertex="1">
          <mxGeometry x="301" y="19" width="520" height="30" as="geometry" />
        </mxCell>
        <mxCell id="iMYa6rATb_xm3hTtFsLh-0" value="&lt;b&gt;PII /&lt;br&gt;Sensitive&lt;br&gt;Data&lt;br&gt;Scrub&lt;/b&gt;" style="rounded=1;whiteSpace=wrap;html=1;fontSize=12;dashed=1;" parent="hyJC9mIuy3ANaXY3VcQb-1" vertex="1">
          <mxGeometry x="651" y="240" width="79" height="200" as="geometry" />
        </mxCell>
        <mxCell id="hC9iuBU5DZdMR2iyAppj-2" value="" style="endArrow=classic;html=1;rounded=0;fontSize=18;fontColor=#000000;entryX=0;entryY=0.5;entryDx=0;entryDy=0;strokeColor=#2D7600;strokeWidth=3;fillColor=#60a917;" parent="hyJC9mIuy3ANaXY3VcQb-1" edge="1">
          <mxGeometry width="50" height="50" relative="1" as="geometry">
            <mxPoint x="730" y="336" as="sourcePoint" />
            <mxPoint x="790" y="336" as="targetPoint" />
          </mxGeometry>
        </mxCell>
        <mxCell id="hC9iuBU5DZdMR2iyAppj-3" value="" style="endArrow=classic;html=1;rounded=0;fontSize=18;fontColor=#000000;entryX=0;entryY=0.5;entryDx=0;entryDy=0;strokeColor=#2D7600;strokeWidth=3;fillColor=#60a917;" parent="hyJC9mIuy3ANaXY3VcQb-1" edge="1">
          <mxGeometry width="50" height="50" relative="1" as="geometry">
            <mxPoint x="962" y="336" as="sourcePoint" />
            <mxPoint x="1022" y="336" as="targetPoint" />
          </mxGeometry>
        </mxCell>
        <mxCell id="cMJbEtjQZFThihdctyKy-26" value="Operational Systems" style="swimlane;whiteSpace=wrap;html=1;shadow=0;strokeColor=default;fontSize=18;startSize=40;dashed=1;" parent="hyJC9mIuy3ANaXY3VcQb-1" vertex="1">
          <mxGeometry x="59" y="80" width="180" height="480" as="geometry" />
        </mxCell>
        <mxCell id="cMJbEtjQZFThihdctyKy-27" value="Interactive&lt;br&gt;Call Center" style="rounded=1;whiteSpace=wrap;html=1;shadow=0;strokeColor=default;fontSize=18;" parent="cMJbEtjQZFThihdctyKy-26" vertex="1">
          <mxGeometry x="21" y="80" width="140" height="60" as="geometry" />
        </mxCell>
        <mxCell id="cMJbEtjQZFThihdctyKy-28" value="Email &lt;br&gt;Support" style="rounded=1;whiteSpace=wrap;html=1;shadow=0;strokeColor=default;fontSize=18;" parent="cMJbEtjQZFThihdctyKy-26" vertex="1">
          <mxGeometry x="21" y="176" width="140" height="60" as="geometry" />
        </mxCell>
        <mxCell id="cMJbEtjQZFThihdctyKy-29" value="..." style="rounded=1;whiteSpace=wrap;html=1;shadow=0;strokeColor=default;fontSize=18;" parent="cMJbEtjQZFThihdctyKy-26" vertex="1">
          <mxGeometry x="21" y="271" width="140" height="60" as="geometry" />
        </mxCell>
        <mxCell id="cMJbEtjQZFThihdctyKy-30" value="Data Sets" style="swimlane;whiteSpace=wrap;html=1;shadow=0;strokeColor=default;fontSize=18;startSize=40;dashed=1;" parent="hyJC9mIuy3ANaXY3VcQb-1" vertex="1">
          <mxGeometry x="300" y="80" width="180" height="480" as="geometry" />
        </mxCell>
        <mxCell id="cMJbEtjQZFThihdctyKy-31" value="&lt;font color=&quot;#9933ff&quot;&gt;Call Logs&lt;/font&gt; &amp;amp; Operations Data" style="rounded=1;whiteSpace=wrap;html=1;shadow=0;strokeColor=default;fontSize=18;" parent="cMJbEtjQZFThihdctyKy-30" vertex="1">
          <mxGeometry x="18" y="80" width="140" height="60" as="geometry" />
        </mxCell>
        <mxCell id="cMJbEtjQZFThihdctyKy-32" value="&lt;font color=&quot;#9933ff&quot;&gt;Emails&lt;/font&gt; &amp;amp; Operations Data" style="rounded=1;whiteSpace=wrap;html=1;shadow=0;strokeColor=default;fontSize=18;" parent="cMJbEtjQZFThihdctyKy-30" vertex="1">
          <mxGeometry x="18" y="176" width="140" height="60" as="geometry" />
        </mxCell>
        <mxCell id="cMJbEtjQZFThihdctyKy-33" value="..." style="rounded=1;whiteSpace=wrap;html=1;shadow=0;strokeColor=default;fontSize=18;" parent="cMJbEtjQZFThihdctyKy-30" vertex="1">
          <mxGeometry x="18" y="272" width="140" height="60" as="geometry" />
        </mxCell>
        <mxCell id="cMJbEtjQZFThihdctyKy-35" value="" style="endArrow=classic;html=1;rounded=0;fontSize=18;fontColor=#000000;entryX=0;entryY=0.5;entryDx=0;entryDy=0;strokeColor=#9933FF;strokeWidth=3;fillColor=#60a917;" parent="hyJC9mIuy3ANaXY3VcQb-1" edge="1">
          <mxGeometry width="50" height="50" relative="1" as="geometry">
            <mxPoint x="240" y="335" as="sourcePoint" />
            <mxPoint x="300" y="335" as="targetPoint" />
          </mxGeometry>
        </mxCell>
        <mxCell id="cMJbEtjQZFThihdctyKy-36" value="" style="endArrow=classic;html=1;rounded=0;fontSize=18;fontColor=#000000;entryX=0;entryY=0.5;entryDx=0;entryDy=0;strokeColor=#9933FF;strokeWidth=3;fillColor=#60a917;" parent="hyJC9mIuy3ANaXY3VcQb-1" edge="1">
          <mxGeometry width="50" height="50" relative="1" as="geometry">
            <mxPoint x="465" y="336" as="sourcePoint" />
            <mxPoint x="525" y="336" as="targetPoint" />
          </mxGeometry>
        </mxCell>
        <mxCell id="cMJbEtjQZFThihdctyKy-44" value="PII Data: &lt;br&gt;1. First &amp;amp; last names, phone numbers, address, emai&lt;br&gt;2. Financial IDs: bank account, credit cards" style="ellipse;shape=cloud;whiteSpace=wrap;html=1;labelBackgroundColor=#FFFFFF;strokeColor=#000000;fontSize=12;fontColor=#000000;fillColor=none;spacingLeft=37;spacingRight=38;" parent="hyJC9mIuy3ANaXY3VcQb-1" vertex="1">
          <mxGeometry x="111" y="570" width="314" height="185" as="geometry" />
        </mxCell>
        <mxCell id="cMJbEtjQZFThihdctyKy-45" value="Customer Sensitive Data:&amp;nbsp;&lt;br&gt;Company names,&lt;br&gt;product names" style="ellipse;shape=cloud;whiteSpace=wrap;html=1;labelBackgroundColor=#FFFFFF;strokeColor=#000000;fontSize=12;fontColor=#000000;fillColor=none;" parent="hyJC9mIuy3ANaXY3VcQb-1" vertex="1">
          <mxGeometry x="730" y="570" width="314" height="185" as="geometry" />
        </mxCell>
        <mxCell id="cMJbEtjQZFThihdctyKy-46" value="" style="group" parent="hyJC9mIuy3ANaXY3VcQb-1" vertex="1" connectable="0">
          <mxGeometry x="1235" y="192" width="126" height="126" as="geometry" />
        </mxCell>
        <mxCell id="hyJC9mIuy3ANaXY3VcQb-10" value="In-House &lt;br&gt;BA / DS" style="shape=umlActor;verticalLabelPosition=bottom;verticalAlign=top;html=1;outlineConnect=0;shadow=0;fontSize=18;" parent="cMJbEtjQZFThihdctyKy-46" vertex="1">
          <mxGeometry x="49" y="10" width="30" height="60" as="geometry" />
        </mxCell>
        <mxCell id="Vzgi_a3mK3YBf326HaKh-0" value="" style="endArrow=classic;html=1;rounded=0;fontSize=18;fontColor=#000000;entryX=0;entryY=0.5;entryDx=0;entryDy=0;strokeColor=#9933FF;strokeWidth=2;" parent="hyJC9mIuy3ANaXY3VcQb-1" edge="1">
          <mxGeometry width="50" height="50" relative="1" as="geometry">
            <mxPoint x="1184" y="266.99999999999994" as="sourcePoint" />
            <mxPoint x="1244" y="266.99999999999994" as="targetPoint" />
          </mxGeometry>
        </mxCell>
        <mxCell id="Vzgi_a3mK3YBf326HaKh-1" value="" style="endArrow=classic;html=1;rounded=0;fontSize=18;fontColor=#000000;entryX=0;entryY=0.5;entryDx=0;entryDy=0;strokeColor=#2D7600;strokeWidth=3;fillColor=#60a917;endFill=1;" parent="hyJC9mIuy3ANaXY3VcQb-1" edge="1">
          <mxGeometry width="50" height="50" relative="1" as="geometry">
            <mxPoint x="1184" y="246" as="sourcePoint" />
            <mxPoint x="1244" y="246" as="targetPoint" />
          </mxGeometry>
        </mxCell>
        <mxCell id="lL4ZgJNbkS84mpPhjDt2-0" value="" style="endArrow=classic;html=1;rounded=0;fontSize=18;fontColor=#000000;entryX=0;entryY=0.5;entryDx=0;entryDy=0;strokeColor=#9933FF;strokeWidth=3;fillColor=#60a917;" parent="hyJC9mIuy3ANaXY3VcQb-1" edge="1">
          <mxGeometry width="50" height="50" relative="1" as="geometry">
            <mxPoint x="590" y="336" as="sourcePoint" />
            <mxPoint x="650" y="336" as="targetPoint" />
          </mxGeometry>
        </mxCell>
        <mxCell id="ia0AlMXWDNswG1ZiIBuI-0" value="" style="endArrow=classic;html=1;rounded=0;fontSize=18;fontColor=#000000;entryX=0;entryY=0.25;entryDx=0;entryDy=0;strokeColor=#000000;strokeWidth=3;fillColor=#60a917;" parent="hyJC9mIuy3ANaXY3VcQb-1" target="hyJC9mIuy3ANaXY3VcQb-7" edge="1">
          <mxGeometry width="50" height="50" relative="1" as="geometry">
            <mxPoint x="600" y="200" as="sourcePoint" />
            <mxPoint x="660" y="200" as="targetPoint" />
          </mxGeometry>
        </mxCell>
        <mxCell id="ia0AlMXWDNswG1ZiIBuI-2" value="" style="endArrow=classic;html=1;rounded=0;fontSize=18;fontColor=#000000;entryX=0;entryY=0.5;entryDx=0;entryDy=0;strokeColor=#000000;strokeWidth=3;fillColor=#60a917;" parent="hyJC9mIuy3ANaXY3VcQb-1" edge="1">
          <mxGeometry width="50" height="50" relative="1" as="geometry">
            <mxPoint x="470" y="200" as="sourcePoint" />
            <mxPoint x="530" y="200" as="targetPoint" />
          </mxGeometry>
        </mxCell>
        <mxCell id="ia0AlMXWDNswG1ZiIBuI-3" value="" style="endArrow=classic;html=1;rounded=0;fontSize=18;fontColor=#000000;entryX=0;entryY=0.5;entryDx=0;entryDy=0;strokeColor=#000000;strokeWidth=3;fillColor=#60a917;" parent="hyJC9mIuy3ANaXY3VcQb-1" edge="1">
          <mxGeometry width="50" height="50" relative="1" as="geometry">
            <mxPoint x="241" y="200" as="sourcePoint" />
            <mxPoint x="301" y="200" as="targetPoint" />
          </mxGeometry>
        </mxCell>
      </root>
    </mxGraphModel>
  </diagram>
  <diagram name="Concept. Arch." id="U5oCiPYMo4C-_qP5Ro2j">
    <mxGraphModel dx="1426" dy="823" grid="0" gridSize="10" guides="1" tooltips="0" connect="1" arrows="1" fold="1" page="1" pageScale="1" pageWidth="850" pageHeight="1100" math="0" shadow="0">
      <root>
        <mxCell id="vECQrhH6S6L_jKQsrYaC-0" />
        <mxCell id="vECQrhH6S6L_jKQsrYaC-1" parent="vECQrhH6S6L_jKQsrYaC-0" />
        <mxCell id="Jbev7n5TZAjuA62yBq81-9" value="" style="endArrow=classic;html=1;rounded=0;fontSize=12;fontColor=#009900;strokeColor=#009900;strokeWidth=3;entryX=0.75;entryY=0;entryDx=0;entryDy=0;" parent="vECQrhH6S6L_jKQsrYaC-1" edge="1">
          <mxGeometry width="50" height="50" relative="1" as="geometry">
            <mxPoint x="998" y="292.5001221995926" as="sourcePoint" />
            <mxPoint x="1058" y="292.5" as="targetPoint" />
          </mxGeometry>
        </mxCell>
        <mxCell id="P1VBO0125E697iJatHT7-12" value="" style="endArrow=classic;html=1;rounded=0;fontSize=12;fontColor=#009900;strokeColor=#9933FF;strokeWidth=3;" parent="vECQrhH6S6L_jKQsrYaC-1" edge="1">
          <mxGeometry width="50" height="50" relative="1" as="geometry">
            <mxPoint x="309" y="292.5" as="sourcePoint" />
            <mxPoint x="369" y="292.5" as="targetPoint" />
            <Array as="points" />
          </mxGeometry>
        </mxCell>
        <mxCell id="d3J5X8sZ9Ng9CjnSrTks-2" value="" style="rounded=1;whiteSpace=wrap;html=1;shadow=0;labelBorderColor=none;strokeColor=default;fontSize=18;fontColor=#000000;" parent="vECQrhH6S6L_jKQsrYaC-1" vertex="1">
          <mxGeometry x="141" y="480" width="168" height="330" as="geometry" />
        </mxCell>
        <mxCell id="WoJVJzB--j_4nprUgPEj-0" value="" style="rounded=1;whiteSpace=wrap;html=1;shadow=0;labelBorderColor=none;strokeColor=default;fontSize=18;fontColor=#000000;" parent="vECQrhH6S6L_jKQsrYaC-1" vertex="1">
          <mxGeometry x="1058" y="120" width="201" height="330" as="geometry" />
        </mxCell>
        <mxCell id="WoJVJzB--j_4nprUgPEj-1" value="" style="rounded=1;whiteSpace=wrap;html=1;shadow=0;labelBorderColor=none;strokeColor=default;fontSize=18;fontColor=#000000;" parent="vECQrhH6S6L_jKQsrYaC-1" vertex="1">
          <mxGeometry x="373" y="480" width="630" height="330" as="geometry" />
        </mxCell>
        <mxCell id="WoJVJzB--j_4nprUgPEj-2" value="" style="rounded=1;whiteSpace=wrap;html=1;shadow=0;labelBorderColor=none;strokeColor=default;fontSize=18;fontColor=#000000;" parent="vECQrhH6S6L_jKQsrYaC-1" vertex="1">
          <mxGeometry x="373" y="120" width="630" height="330" as="geometry" />
        </mxCell>
        <mxCell id="Kq4Q_HxL_EDb6amXsnjC-2" value="" style="rounded=1;whiteSpace=wrap;html=1;shadow=0;labelBorderColor=none;strokeColor=default;fontSize=18;fontColor=#000000;" parent="vECQrhH6S6L_jKQsrYaC-1" vertex="1">
          <mxGeometry x="143" y="120" width="168" height="330" as="geometry" />
        </mxCell>
        <mxCell id="WoJVJzB--j_4nprUgPEj-5" value="&lt;b&gt;Data Scrubbing&lt;/b&gt;" style="text;html=1;strokeColor=none;fillColor=none;align=center;verticalAlign=middle;whiteSpace=wrap;rounded=0;shadow=0;labelBorderColor=none;fontSize=18;fontColor=#000000;" parent="vECQrhH6S6L_jKQsrYaC-1" vertex="1">
          <mxGeometry x="603" y="130" width="190" height="30" as="geometry" />
        </mxCell>
        <mxCell id="HjNYrEMp7qiQDzvC1vbF-0" value="&lt;b&gt;Data Recovery&lt;/b&gt;" style="text;html=1;strokeColor=none;fillColor=none;align=center;verticalAlign=middle;whiteSpace=wrap;rounded=0;shadow=0;labelBorderColor=none;fontSize=18;fontColor=#000000;" parent="vECQrhH6S6L_jKQsrYaC-1" vertex="1">
          <mxGeometry x="610" y="771" width="190" height="30" as="geometry" />
        </mxCell>
        <mxCell id="ZVf5o5FCNgTjF1t6p-4r-0" value="&lt;font style=&quot;font-size: 18px;&quot; color=&quot;#009900&quot;&gt;Scrubbed&lt;br&gt;Data&lt;/font&gt;" style="text;html=1;strokeColor=none;fillColor=none;align=center;verticalAlign=middle;whiteSpace=wrap;rounded=0;shadow=0;labelBorderColor=none;fontSize=18;fontColor=#000000;" parent="vECQrhH6S6L_jKQsrYaC-1" vertex="1">
          <mxGeometry x="1081.5" y="353" width="160" height="76" as="geometry" />
        </mxCell>
        <mxCell id="wKE5nm-SS70sGp9_8txt-0" value="&lt;font style=&quot;font-size: 24px;&quot;&gt;&lt;u&gt;Conceptual Architecture&lt;/u&gt;&lt;/font&gt;" style="text;html=1;strokeColor=none;fillColor=none;align=center;verticalAlign=middle;whiteSpace=wrap;rounded=0;fontSize=16;" parent="vECQrhH6S6L_jKQsrYaC-1" vertex="1">
          <mxGeometry x="410" y="50" width="570" height="30" as="geometry" />
        </mxCell>
        <mxCell id="evHc9JdPxS25grD69CpZ-1" style="edgeStyle=orthogonalEdgeStyle;rounded=0;orthogonalLoop=1;jettySize=auto;html=1;exitX=0.5;exitY=1;exitDx=0;exitDy=0;dashed=1;strokeColor=#000000;strokeWidth=3;fontSize=12;fontColor=#000000;endArrow=classic;endFill=1;" parent="vECQrhH6S6L_jKQsrYaC-1" source="Kq4Q_HxL_EDb6amXsnjC-2" target="Kq4Q_HxL_EDb6amXsnjC-2" edge="1">
          <mxGeometry relative="1" as="geometry" />
        </mxCell>
        <mxCell id="1LNAjDEf3UrN6gsHd2VN-3" value="&lt;b&gt;Input&lt;/b&gt;" style="text;html=1;strokeColor=none;fillColor=none;align=center;verticalAlign=middle;whiteSpace=wrap;rounded=0;shadow=0;labelBorderColor=none;fontSize=18;fontColor=#999999;" parent="vECQrhH6S6L_jKQsrYaC-1" vertex="1">
          <mxGeometry x="152" y="131" width="150" height="30" as="geometry" />
        </mxCell>
        <mxCell id="1LNAjDEf3UrN6gsHd2VN-4" value="&lt;font color=&quot;#9933ff&quot;&gt;PII/Sensitive&lt;br&gt;Data&lt;/font&gt;" style="text;html=1;strokeColor=none;fillColor=none;align=center;verticalAlign=middle;whiteSpace=wrap;rounded=0;shadow=0;labelBorderColor=none;fontSize=18;fontColor=#000000;" parent="vECQrhH6S6L_jKQsrYaC-1" vertex="1">
          <mxGeometry x="144" y="353" width="160" height="76" as="geometry" />
        </mxCell>
        <mxCell id="d3J5X8sZ9Ng9CjnSrTks-0" value="" style="group" parent="vECQrhH6S6L_jKQsrYaC-1" vertex="1" connectable="0">
          <mxGeometry x="150" y="481" width="157" height="255" as="geometry" />
        </mxCell>
        <mxCell id="_N0zJq4zsGdLo24JYFob-12" value="&lt;b&gt;&lt;i&gt;Debugging,&lt;br&gt;Reporting&lt;br&gt;&lt;/i&gt;&lt;/b&gt;" style="text;html=1;strokeColor=none;fillColor=none;align=center;verticalAlign=middle;whiteSpace=wrap;rounded=0;shadow=0;labelBorderColor=none;fontSize=18;fontColor=#000000;" parent="d3J5X8sZ9Ng9CjnSrTks-0" vertex="1">
          <mxGeometry y="62" width="150" height="30" as="geometry" />
        </mxCell>
        <mxCell id="dNKVg5YqKzPiaZJYBdvy-3" value="" style="endArrow=classic;html=1;rounded=0;fontSize=12;fontColor=#009900;strokeColor=#009900;strokeWidth=3;entryX=0.75;entryY=0;entryDx=0;entryDy=0;" parent="vECQrhH6S6L_jKQsrYaC-1" edge="1">
          <mxGeometry width="50" height="50" relative="1" as="geometry">
            <mxPoint x="310" y="650.0001221995926" as="sourcePoint" />
            <mxPoint x="370" y="650" as="targetPoint" />
          </mxGeometry>
        </mxCell>
        <mxCell id="yZhkvK8ifDNL2Qbu07rM-18" value="" style="endArrow=none;html=1;rounded=0;" parent="vECQrhH6S6L_jKQsrYaC-1" edge="1">
          <mxGeometry width="50" height="50" relative="1" as="geometry">
            <mxPoint x="188" y="1100" as="sourcePoint" />
            <mxPoint x="1188" y="1100" as="targetPoint" />
          </mxGeometry>
        </mxCell>
        <mxCell id="uRdIC1-EpQzeTEONplhM-4" value="" style="verticalLabelPosition=bottom;html=1;verticalAlign=top;align=center;strokeColor=#2D7600;fillColor=#60a917;shape=mxgraph.azure.file;pointerEvents=1;fontColor=#ffffff;" parent="vECQrhH6S6L_jKQsrYaC-1" vertex="1">
          <mxGeometry x="1118.5" y="235" width="80" height="100" as="geometry" />
        </mxCell>
        <mxCell id="uRdIC1-EpQzeTEONplhM-5" value="" style="verticalLabelPosition=bottom;html=1;verticalAlign=top;align=center;strokeColor=#2D7600;fillColor=#9933FF;shape=mxgraph.azure.file;pointerEvents=1;fontColor=#ffffff;" parent="vECQrhH6S6L_jKQsrYaC-1" vertex="1">
          <mxGeometry x="183.5" y="245.5" width="80" height="100" as="geometry" />
        </mxCell>
        <mxCell id="uRdIC1-EpQzeTEONplhM-6" value="&lt;b&gt;Output&lt;/b&gt;" style="text;html=1;strokeColor=none;fillColor=none;align=center;verticalAlign=middle;whiteSpace=wrap;rounded=0;shadow=0;labelBorderColor=none;fontSize=18;fontColor=#999999;" parent="vECQrhH6S6L_jKQsrYaC-1" vertex="1">
          <mxGeometry x="1083.5" y="130" width="150" height="30" as="geometry" />
        </mxCell>
        <mxCell id="uRdIC1-EpQzeTEONplhM-7" value="&lt;b&gt;&lt;i&gt;ETL&lt;/i&gt;&lt;/b&gt;" style="text;html=1;strokeColor=none;fillColor=none;align=center;verticalAlign=middle;whiteSpace=wrap;rounded=0;shadow=0;labelBorderColor=none;fontSize=18;fontColor=#000000;" parent="vECQrhH6S6L_jKQsrYaC-1" vertex="1">
          <mxGeometry x="150" y="187" width="150" height="30" as="geometry" />
        </mxCell>
        <mxCell id="uRdIC1-EpQzeTEONplhM-8" value="&lt;b&gt;Input&lt;/b&gt;" style="text;html=1;strokeColor=none;fillColor=none;align=center;verticalAlign=middle;whiteSpace=wrap;rounded=0;shadow=0;labelBorderColor=none;fontSize=18;fontColor=#999999;" parent="vECQrhH6S6L_jKQsrYaC-1" vertex="1">
          <mxGeometry x="151" y="490" width="150" height="30" as="geometry" />
        </mxCell>
        <mxCell id="_N0zJq4zsGdLo24JYFob-2" value="" style="rounded=1;whiteSpace=wrap;html=1;shadow=0;labelBorderColor=none;strokeColor=default;fontSize=18;fontColor=#000000;" parent="vECQrhH6S6L_jKQsrYaC-1" vertex="1">
          <mxGeometry x="1060" y="480" width="201" height="330" as="geometry" />
        </mxCell>
        <mxCell id="_N0zJq4zsGdLo24JYFob-3" value="" style="verticalLabelPosition=bottom;html=1;verticalAlign=top;align=center;strokeColor=#2D7600;fillColor=#9933FF;shape=mxgraph.azure.file;pointerEvents=1;fontColor=#ffffff;" parent="vECQrhH6S6L_jKQsrYaC-1" vertex="1">
          <mxGeometry x="1120.5" y="595" width="80" height="100" as="geometry" />
        </mxCell>
        <mxCell id="_N0zJq4zsGdLo24JYFob-1" value="" style="endArrow=classic;html=1;rounded=0;fontSize=12;fontColor=#009900;strokeColor=#9933FF;strokeWidth=3;entryX=0.75;entryY=0;entryDx=0;entryDy=0;" parent="vECQrhH6S6L_jKQsrYaC-1" edge="1">
          <mxGeometry width="50" height="50" relative="1" as="geometry">
            <mxPoint x="1000" y="652.5001221995926" as="sourcePoint" />
            <mxPoint x="1060" y="652.5" as="targetPoint" />
          </mxGeometry>
        </mxCell>
        <mxCell id="_N0zJq4zsGdLo24JYFob-9" value="" style="verticalLabelPosition=bottom;html=1;verticalAlign=top;align=center;strokeColor=#2D7600;fillColor=#60a917;shape=mxgraph.azure.file;pointerEvents=1;fontColor=#ffffff;" parent="vECQrhH6S6L_jKQsrYaC-1" vertex="1">
          <mxGeometry x="185" y="604.51" width="80" height="100" as="geometry" />
        </mxCell>
        <mxCell id="_N0zJq4zsGdLo24JYFob-4" value="&lt;font color=&quot;#9933ff&quot;&gt;PII/Sensitive&amp;nbsp;&lt;br&gt;Data&lt;br&gt;&lt;/font&gt;" style="text;html=1;strokeColor=none;fillColor=none;align=center;verticalAlign=middle;whiteSpace=wrap;rounded=0;shadow=0;labelBorderColor=none;fontSize=18;fontColor=#000000;" parent="vECQrhH6S6L_jKQsrYaC-1" vertex="1">
          <mxGeometry x="1080" y="723.5102040816327" width="160" height="65.57142857142857" as="geometry" />
        </mxCell>
        <mxCell id="_N0zJq4zsGdLo24JYFob-13" value="&lt;b&gt;Output&lt;/b&gt;" style="text;html=1;strokeColor=none;fillColor=none;align=center;verticalAlign=middle;whiteSpace=wrap;rounded=0;shadow=0;labelBorderColor=none;fontSize=18;fontColor=#999999;" parent="vECQrhH6S6L_jKQsrYaC-1" vertex="1">
          <mxGeometry x="1090" y="490" width="150" height="30" as="geometry" />
        </mxCell>
        <mxCell id="aJ0QvmJ6IRqmMJEQwCCZ-8" value="AWS Extra Services" parent="vECQrhH6S6L_jKQsrYaC-0" visible="0" />
        <mxCell id="OXiLPqIgGO-Nqdxe6aSr-3" value="" style="group" parent="aJ0QvmJ6IRqmMJEQwCCZ-8" vertex="1" connectable="0">
          <mxGeometry x="440" y="1143" width="96" height="115" as="geometry" />
        </mxCell>
        <mxCell id="7tzAMNuTQEDVPN01q9rU-1" value="" style="outlineConnect=0;dashed=0;verticalLabelPosition=bottom;verticalAlign=top;align=center;html=1;shape=mxgraph.aws3.cloudtrail;fillColor=#759C3E;gradientColor=none;labelBackgroundColor=#000000;strokeColor=#000000;fontSize=15;fontColor=#FFFFFF;" parent="OXiLPqIgGO-Nqdxe6aSr-3" vertex="1">
          <mxGeometry x="9.5" width="74" height="73" as="geometry" />
        </mxCell>
        <mxCell id="OXiLPqIgGO-Nqdxe6aSr-1" value="&lt;font style=&quot;font-size: 12px;&quot;&gt;AWS&amp;nbsp;&lt;br&gt;Cloud Trail&lt;br&gt;&lt;/font&gt;" style="text;html=1;strokeColor=none;fillColor=none;align=center;verticalAlign=middle;whiteSpace=wrap;rounded=0;dashed=1;labelBackgroundColor=#FFFFFF;fontSize=15;fontColor=#000000;" parent="OXiLPqIgGO-Nqdxe6aSr-3" vertex="1">
          <mxGeometry y="85" width="96" height="30" as="geometry" />
        </mxCell>
        <mxCell id="7tzAMNuTQEDVPN01q9rU-0" value="Amazon&lt;br&gt;CloudWatch&lt;br&gt;" style="outlineConnect=0;fontColor=#232F3E;gradientColor=#F34482;gradientDirection=north;fillColor=#BC1356;strokeColor=#ffffff;dashed=0;verticalLabelPosition=bottom;verticalAlign=top;align=center;html=1;fontSize=12;fontStyle=0;aspect=fixed;shape=mxgraph.aws4.resourceIcon;resIcon=mxgraph.aws4.cloudwatch;labelBackgroundColor=#ffffff;" parent="aJ0QvmJ6IRqmMJEQwCCZ-8" vertex="1">
          <mxGeometry x="582.0000000000002" y="1143" width="78" height="78" as="geometry" />
        </mxCell>
        <mxCell id="aJ0QvmJ6IRqmMJEQwCCZ-11" value="" style="group" parent="aJ0QvmJ6IRqmMJEQwCCZ-8" vertex="1" connectable="0">
          <mxGeometry x="301" y="1133" width="99" height="125" as="geometry" />
        </mxCell>
        <mxCell id="7tzAMNuTQEDVPN01q9rU-2" value="" style="outlineConnect=0;dashed=0;verticalLabelPosition=bottom;verticalAlign=top;align=center;html=1;shape=mxgraph.aws3.iam;fillColor=#759C3E;gradientColor=none;labelBackgroundColor=#000000;strokeColor=#000000;fontSize=15;fontColor=#FFFFFF;" parent="aJ0QvmJ6IRqmMJEQwCCZ-11" vertex="1">
          <mxGeometry x="28.359375" y="20.833333333333258" width="43.828125" height="63.54166666666667" as="geometry" />
        </mxCell>
        <mxCell id="OXiLPqIgGO-Nqdxe6aSr-2" value="" style="group" parent="aJ0QvmJ6IRqmMJEQwCCZ-11" vertex="1" connectable="0">
          <mxGeometry width="99" height="125" as="geometry" />
        </mxCell>
        <mxCell id="OXiLPqIgGO-Nqdxe6aSr-0" value="&lt;font style=&quot;font-size: 12px;&quot;&gt;Amazon &amp;nbsp;Identity &amp;amp; Access Mgmt.&lt;/font&gt;" style="text;html=1;strokeColor=none;fillColor=none;align=center;verticalAlign=middle;whiteSpace=wrap;rounded=0;dashed=1;labelBackgroundColor=#FFFFFF;fontSize=15;fontColor=#000000;" parent="OXiLPqIgGO-Nqdxe6aSr-2" vertex="1">
          <mxGeometry y="93.75" width="99" height="31.250000000000004" as="geometry" />
        </mxCell>
        <mxCell id="xL5HOf-qpeLGTcusrbmE-6" value="" style="group" parent="aJ0QvmJ6IRqmMJEQwCCZ-8" vertex="1" connectable="0">
          <mxGeometry x="704" y="1143" width="90" height="108" as="geometry" />
        </mxCell>
        <mxCell id="xL5HOf-qpeLGTcusrbmE-2" value="" style="sketch=0;points=[[0,0,0],[0.25,0,0],[0.5,0,0],[0.75,0,0],[1,0,0],[0,1,0],[0.25,1,0],[0.5,1,0],[0.75,1,0],[1,1,0],[0,0.25,0],[0,0.5,0],[0,0.75,0],[1,0.25,0],[1,0.5,0],[1,0.75,0]];outlineConnect=0;fontColor=#232F3E;gradientColor=#F54749;gradientDirection=north;fillColor=#C7131F;strokeColor=#ffffff;dashed=0;verticalLabelPosition=bottom;verticalAlign=top;align=center;html=1;fontSize=12;fontStyle=0;aspect=fixed;shape=mxgraph.aws4.resourceIcon;resIcon=mxgraph.aws4.waf;labelBackgroundColor=#000000;" parent="xL5HOf-qpeLGTcusrbmE-6" vertex="1">
          <mxGeometry x="8" width="75" height="75" as="geometry" />
        </mxCell>
        <mxCell id="xL5HOf-qpeLGTcusrbmE-4" value="&lt;font style=&quot;font-size: 12px;&quot;&gt;AWS Web &lt;br&gt;App Firewall&lt;/font&gt;" style="text;html=1;align=center;verticalAlign=middle;whiteSpace=wrap;rounded=0;dashed=1;labelBackgroundColor=#FFFFFF;fontSize=15;" parent="xL5HOf-qpeLGTcusrbmE-6" vertex="1">
          <mxGeometry y="78" width="90" height="30" as="geometry" />
        </mxCell>
        <mxCell id="aJ0QvmJ6IRqmMJEQwCCZ-7" value="AWS Services" parent="vECQrhH6S6L_jKQsrYaC-0" visible="0" />
        <mxCell id="xL5HOf-qpeLGTcusrbmE-7" value="" style="group" parent="aJ0QvmJ6IRqmMJEQwCCZ-7" vertex="1" connectable="0">
          <mxGeometry x="1540" y="360" width="107" height="122" as="geometry" />
        </mxCell>
        <mxCell id="xL5HOf-qpeLGTcusrbmE-1" value="" style="sketch=0;points=[[0,0,0],[0.25,0,0],[0.5,0,0],[0.75,0,0],[1,0,0],[0,1,0],[0.25,1,0],[0.5,1,0],[0.75,1,0],[1,1,0],[0,0.25,0],[0,0.5,0],[0,0.75,0],[1,0.25,0],[1,0.5,0],[1,0.75,0]];outlineConnect=0;fontColor=#232F3E;gradientColor=#945DF2;gradientDirection=north;fillColor=#5A30B5;strokeColor=#ffffff;dashed=0;verticalLabelPosition=bottom;verticalAlign=top;align=center;html=1;fontSize=12;fontStyle=0;aspect=fixed;shape=mxgraph.aws4.resourceIcon;resIcon=mxgraph.aws4.api_gateway;labelBackgroundColor=#000000;" parent="xL5HOf-qpeLGTcusrbmE-7" vertex="1">
          <mxGeometry x="5" width="78" height="78" as="geometry" />
        </mxCell>
        <mxCell id="xL5HOf-qpeLGTcusrbmE-5" value="&lt;font style=&quot;font-size: 12px;&quot;&gt;Amazon API Gateway&lt;/font&gt;" style="text;html=1;strokeColor=none;fillColor=none;align=center;verticalAlign=middle;whiteSpace=wrap;rounded=0;dashed=1;labelBackgroundColor=#FFFFFF;fontSize=15;fontColor=#000000;" parent="xL5HOf-qpeLGTcusrbmE-7" vertex="1">
          <mxGeometry y="78.5" width="90" height="30" as="geometry" />
        </mxCell>
        <mxCell id="yZhkvK8ifDNL2Qbu07rM-15" value="&lt;span style=&quot;&quot;&gt;Amazon API&lt;br&gt;Gateway&lt;/span&gt;" style="text;html=1;strokeColor=none;fillColor=none;align=center;verticalAlign=middle;whiteSpace=wrap;rounded=0;shadow=0;labelBorderColor=none;fontSize=18;fontColor=#000000;labelBackgroundColor=#FFFFFF;" parent="xL5HOf-qpeLGTcusrbmE-7" vertex="1">
          <mxGeometry x="-14" y="76" width="121" height="46" as="geometry" />
        </mxCell>
        <mxCell id="xL5HOf-qpeLGTcusrbmE-8" value="" style="group" parent="aJ0QvmJ6IRqmMJEQwCCZ-7" vertex="1" connectable="0">
          <mxGeometry x="1390" y="507" width="123" height="125" as="geometry" />
        </mxCell>
        <mxCell id="xL5HOf-qpeLGTcusrbmE-0" value="" style="sketch=0;points=[[0,0,0],[0.25,0,0],[0.5,0,0],[0.75,0,0],[1,0,0],[0,1,0],[0.25,1,0],[0.5,1,0],[0.75,1,0],[1,1,0],[0,0.25,0],[0,0.5,0],[0,0.75,0],[1,0.25,0],[1,0.5,0],[1,0.75,0]];outlineConnect=0;fontColor=#232F3E;gradientColor=#60A337;gradientDirection=north;fillColor=#277116;strokeColor=#ffffff;dashed=0;verticalLabelPosition=bottom;verticalAlign=top;align=center;html=1;fontSize=12;fontStyle=0;aspect=fixed;shape=mxgraph.aws4.resourceIcon;resIcon=mxgraph.aws4.s3;" parent="xL5HOf-qpeLGTcusrbmE-8" vertex="1">
          <mxGeometry x="12" width="78" height="78" as="geometry" />
        </mxCell>
        <mxCell id="xL5HOf-qpeLGTcusrbmE-3" value="&lt;font style=&quot;font-size: 12px;&quot;&gt;Amazon Simple Storage Service&lt;/font&gt;" style="text;html=1;strokeColor=none;fillColor=none;align=center;verticalAlign=middle;whiteSpace=wrap;rounded=0;dashed=1;labelBackgroundColor=#FFFFFF;fontSize=15;fontColor=#000000;" parent="xL5HOf-qpeLGTcusrbmE-8" vertex="1">
          <mxGeometry y="83" width="96" height="30" as="geometry" />
        </mxCell>
        <mxCell id="yZhkvK8ifDNL2Qbu07rM-14" value="&lt;span style=&quot;&quot;&gt;Amazon Simple Storage Service&lt;br&gt;&lt;/span&gt;" style="text;html=1;strokeColor=none;fillColor=none;align=center;verticalAlign=middle;whiteSpace=wrap;rounded=0;shadow=0;labelBorderColor=none;fontSize=18;fontColor=#000000;labelBackgroundColor=#FFFFFF;" parent="xL5HOf-qpeLGTcusrbmE-8" vertex="1">
          <mxGeometry x="-26" y="79" width="155" height="46" as="geometry" />
        </mxCell>
        <mxCell id="7FoGuZenqCTC9W7DuXUZ-6" value="" style="group" parent="aJ0QvmJ6IRqmMJEQwCCZ-7" vertex="1" connectable="0">
          <mxGeometry x="1400" y="80" width="101" height="119" as="geometry" />
        </mxCell>
        <mxCell id="7FoGuZenqCTC9W7DuXUZ-2" value="" style="sketch=0;points=[[0,0,0],[0.25,0,0],[0.5,0,0],[0.75,0,0],[1,0,0],[0,1,0],[0.25,1,0],[0.5,1,0],[0.75,1,0],[1,1,0],[0,0.25,0],[0,0.5,0],[0,0.75,0],[1,0.25,0],[1,0.5,0],[1,0.75,0]];outlineConnect=0;fontColor=#232F3E;gradientColor=#4AB29A;gradientDirection=north;fillColor=#116D5B;strokeColor=#ffffff;dashed=0;verticalLabelPosition=bottom;verticalAlign=top;align=center;html=1;fontSize=12;fontStyle=0;aspect=fixed;shape=mxgraph.aws4.resourceIcon;resIcon=mxgraph.aws4.comprehend;" parent="7FoGuZenqCTC9W7DuXUZ-6" vertex="1">
          <mxGeometry x="4" width="78" height="78" as="geometry" />
        </mxCell>
        <mxCell id="7FoGuZenqCTC9W7DuXUZ-4" value="&lt;span style=&quot;font-size: 12px;&quot;&gt;Amazon Comprehend&lt;/span&gt;" style="text;html=1;strokeColor=none;fillColor=none;align=center;verticalAlign=middle;whiteSpace=wrap;rounded=0;dashed=1;labelBackgroundColor=#FFFFFF;fontSize=15;fontColor=#000000;" parent="7FoGuZenqCTC9W7DuXUZ-6" vertex="1">
          <mxGeometry y="75" width="90" height="30" as="geometry" />
        </mxCell>
        <mxCell id="yZhkvK8ifDNL2Qbu07rM-13" value="&lt;span style=&quot;&quot;&gt;Amazon&lt;br&gt;Comprehend&lt;/span&gt;" style="text;html=1;strokeColor=none;fillColor=none;align=center;verticalAlign=middle;whiteSpace=wrap;rounded=0;shadow=0;labelBorderColor=none;fontSize=18;fontColor=#000000;labelBackgroundColor=#FFFFFF;" parent="7FoGuZenqCTC9W7DuXUZ-6" vertex="1">
          <mxGeometry x="-17" y="73" width="121" height="46" as="geometry" />
        </mxCell>
        <mxCell id="7FoGuZenqCTC9W7DuXUZ-7" value="" style="group" parent="aJ0QvmJ6IRqmMJEQwCCZ-7" vertex="1" connectable="0">
          <mxGeometry x="1383" y="220" width="126" height="120" as="geometry" />
        </mxCell>
        <mxCell id="7FoGuZenqCTC9W7DuXUZ-3" value="" style="sketch=0;points=[[0,0,0],[0.25,0,0],[0.5,0,0],[0.75,0,0],[1,0,0],[0,1,0],[0.25,1,0],[0.5,1,0],[0.75,1,0],[1,1,0],[0,0.25,0],[0,0.5,0],[0,0.75,0],[1,0.25,0],[1,0.5,0],[1,0.75,0]];outlineConnect=0;fontColor=#232F3E;gradientColor=#4AB29A;gradientDirection=north;fillColor=#116D5B;strokeColor=#ffffff;dashed=0;verticalLabelPosition=bottom;verticalAlign=top;align=center;html=1;fontSize=12;fontStyle=0;aspect=fixed;shape=mxgraph.aws4.resourceIcon;resIcon=mxgraph.aws4.elastic_inference_2;" parent="7FoGuZenqCTC9W7DuXUZ-7" vertex="1">
          <mxGeometry x="19" width="78" height="78" as="geometry" />
        </mxCell>
        <mxCell id="7FoGuZenqCTC9W7DuXUZ-5" value="&lt;font style=&quot;font-size: 12px;&quot;&gt;Amazon &amp;nbsp;Sagemaker Serverless Endpoint&lt;/font&gt;" style="text;html=1;strokeColor=none;fillColor=none;align=center;verticalAlign=middle;whiteSpace=wrap;rounded=0;dashed=1;labelBackgroundColor=#FFFFFF;fontSize=15;fontColor=#000000;" parent="7FoGuZenqCTC9W7DuXUZ-7" vertex="1">
          <mxGeometry y="76" width="119" height="30" as="geometry" />
        </mxCell>
        <mxCell id="yZhkvK8ifDNL2Qbu07rM-6" value="&lt;span style=&quot;&quot;&gt;Amazon&amp;nbsp;SageMaker&lt;br&gt;Endpoint&lt;br&gt;&lt;/span&gt;" style="text;html=1;strokeColor=none;fillColor=none;align=center;verticalAlign=middle;whiteSpace=wrap;rounded=0;shadow=0;labelBorderColor=none;fontSize=18;fontColor=#000000;labelBackgroundColor=#FFFFFF;" parent="7FoGuZenqCTC9W7DuXUZ-7" vertex="1">
          <mxGeometry x="-2" y="74" width="126" height="46" as="geometry" />
        </mxCell>
        <mxCell id="yZhkvK8ifDNL2Qbu07rM-12" value="" style="group" parent="aJ0QvmJ6IRqmMJEQwCCZ-7" vertex="1" connectable="0">
          <mxGeometry x="1397" y="360" width="90" height="124" as="geometry" />
        </mxCell>
        <mxCell id="7FoGuZenqCTC9W7DuXUZ-1" value="Amazon&lt;br&gt;DynamoDB&lt;br&gt;" style="outlineConnect=0;fontColor=#232F3E;gradientColor=#4D72F3;gradientDirection=north;fillColor=#3334B9;strokeColor=#ffffff;dashed=0;verticalLabelPosition=bottom;verticalAlign=top;align=center;html=1;fontSize=12;fontStyle=0;aspect=fixed;shape=mxgraph.aws4.resourceIcon;resIcon=mxgraph.aws4.dynamodb;labelBackgroundColor=#ffffff;spacingTop=5;" parent="yZhkvK8ifDNL2Qbu07rM-12" vertex="1">
          <mxGeometry x="7" width="78" height="78" as="geometry" />
        </mxCell>
        <mxCell id="yZhkvK8ifDNL2Qbu07rM-7" value="&lt;span style=&quot;&quot;&gt;Amazon&lt;br&gt;DynamoDB&lt;/span&gt;" style="text;html=1;strokeColor=none;fillColor=none;align=center;verticalAlign=middle;whiteSpace=wrap;rounded=0;shadow=0;labelBorderColor=none;fontSize=18;fontColor=#000000;labelBackgroundColor=#FFFFFF;" parent="yZhkvK8ifDNL2Qbu07rM-12" vertex="1">
          <mxGeometry y="78" width="90" height="46" as="geometry" />
        </mxCell>
        <mxCell id="yZhkvK8ifDNL2Qbu07rM-11" value="" style="group" parent="aJ0QvmJ6IRqmMJEQwCCZ-7" vertex="1" connectable="0">
          <mxGeometry x="1400" y="670" width="90" height="130" as="geometry" />
        </mxCell>
        <mxCell id="7FoGuZenqCTC9W7DuXUZ-0" value="Lambda&lt;br&gt;function" style="outlineConnect=0;fontColor=#232F3E;gradientColor=none;fillColor=#D05C17;strokeColor=none;dashed=0;verticalLabelPosition=bottom;verticalAlign=top;align=center;html=1;fontSize=12;fontStyle=0;aspect=fixed;pointerEvents=1;shape=mxgraph.aws4.lambda_function;labelBackgroundColor=#ffffff;" parent="yZhkvK8ifDNL2Qbu07rM-11" vertex="1">
          <mxGeometry x="6" width="78" height="78" as="geometry" />
        </mxCell>
        <mxCell id="yZhkvK8ifDNL2Qbu07rM-5" value="Lambda&lt;br&gt;Function" style="text;html=1;strokeColor=none;fillColor=none;align=center;verticalAlign=middle;whiteSpace=wrap;rounded=0;shadow=0;labelBorderColor=none;fontSize=18;fontColor=#000000;labelBackgroundColor=#FFFFFF;" parent="yZhkvK8ifDNL2Qbu07rM-11" vertex="1">
          <mxGeometry y="84" width="90" height="46" as="geometry" />
        </mxCell>
        <mxCell id="yZhkvK8ifDNL2Qbu07rM-10" value="" style="group" parent="aJ0QvmJ6IRqmMJEQwCCZ-7" vertex="1" connectable="0">
          <mxGeometry x="1540" y="220" width="90" height="126" as="geometry" />
        </mxCell>
        <mxCell id="yWW_EnF610vWrLxdBX5M-0" value="Amazon SageMaker" style="sketch=0;outlineConnect=0;fontColor=#232F3E;gradientColor=none;strokeColor=#ffffff;fillColor=#232F3E;dashed=0;verticalLabelPosition=middle;verticalAlign=bottom;align=center;html=1;whiteSpace=wrap;fontSize=10;fontStyle=5;spacing=3;shape=mxgraph.aws4.productIcon;prIcon=mxgraph.aws4.sagemaker;" parent="yZhkvK8ifDNL2Qbu07rM-10" vertex="1">
          <mxGeometry x="4" width="80" height="110" as="geometry" />
        </mxCell>
        <mxCell id="yZhkvK8ifDNL2Qbu07rM-4" value="&lt;span style=&quot;&quot;&gt;Amazon&lt;br&gt;SageMaker&lt;/span&gt;" style="text;html=1;strokeColor=none;fillColor=none;align=center;verticalAlign=middle;whiteSpace=wrap;rounded=0;shadow=0;labelBorderColor=none;fontSize=18;fontColor=#000000;labelBackgroundColor=#FFFFFF;" parent="yZhkvK8ifDNL2Qbu07rM-10" vertex="1">
          <mxGeometry y="80" width="90" height="46" as="geometry" />
        </mxCell>
        <mxCell id="7x4SSCg97hen-44l2BKt-4" value="" style="endArrow=none;html=1;rounded=0;" parent="aJ0QvmJ6IRqmMJEQwCCZ-7" edge="1">
          <mxGeometry width="50" height="50" relative="1" as="geometry">
            <mxPoint x="1320" y="140" as="sourcePoint" />
            <mxPoint x="1325" y="840" as="targetPoint" />
          </mxGeometry>
        </mxCell>
        <mxCell id="aJ0QvmJ6IRqmMJEQwCCZ-2" value="Revert Data Elements" parent="vECQrhH6S6L_jKQsrYaC-0" visible="0" />
        <mxCell id="QoRhtREtSMuhxjiwsaU2-1" value="" style="rounded=1;whiteSpace=wrap;html=1;shadow=0;labelBorderColor=none;strokeColor=default;fontSize=18;fontColor=#000000;" parent="aJ0QvmJ6IRqmMJEQwCCZ-2" vertex="1">
          <mxGeometry x="570" y="510" width="410" height="250" as="geometry" />
        </mxCell>
        <mxCell id="yZhkvK8ifDNL2Qbu07rM-1" value="" style="rounded=1;whiteSpace=wrap;html=1;shadow=0;labelBorderColor=none;strokeColor=default;fontSize=18;fontColor=#000000;" parent="aJ0QvmJ6IRqmMJEQwCCZ-2" vertex="1">
          <mxGeometry x="400" y="510" width="147" height="250" as="geometry" />
        </mxCell>
        <mxCell id="NZa2NsZIj8Kjokl1UHhB-2" value="Apply Revisions" style="rounded=1;whiteSpace=wrap;html=1;shadow=0;labelBorderColor=none;strokeColor=default;fontSize=18;fontColor=#000000;" parent="aJ0QvmJ6IRqmMJEQwCCZ-2" vertex="1">
          <mxGeometry x="715" y="678" width="120" height="60" as="geometry" />
        </mxCell>
        <mxCell id="NZa2NsZIj8Kjokl1UHhB-1" value="Return Original&lt;br&gt;&amp;nbsp;Data" style="rounded=1;whiteSpace=wrap;html=1;shadow=0;labelBorderColor=none;strokeColor=default;fontSize=18;fontColor=#000000;" parent="aJ0QvmJ6IRqmMJEQwCCZ-2" vertex="1">
          <mxGeometry x="828" y="530" width="120" height="60" as="geometry" />
        </mxCell>
        <mxCell id="NZa2NsZIj8Kjokl1UHhB-0" value="Retrieve Replacement&lt;br&gt;Data" style="rounded=1;whiteSpace=wrap;html=1;shadow=0;labelBorderColor=none;strokeColor=default;fontSize=18;fontColor=#000000;" parent="aJ0QvmJ6IRqmMJEQwCCZ-2" vertex="1">
          <mxGeometry x="600" y="530" width="120" height="60" as="geometry" />
        </mxCell>
        <mxCell id="yZhkvK8ifDNL2Qbu07rM-3" value="Asynchronyous" style="rounded=1;whiteSpace=wrap;html=1;shadow=0;labelBorderColor=none;strokeColor=default;fontSize=18;fontColor=#000000;" parent="aJ0QvmJ6IRqmMJEQwCCZ-2" vertex="1">
          <mxGeometry x="410" y="678" width="127" height="60" as="geometry" />
        </mxCell>
        <mxCell id="yZhkvK8ifDNL2Qbu07rM-2" value="Request/ Response" style="rounded=1;whiteSpace=wrap;html=1;shadow=0;labelBorderColor=none;strokeColor=default;fontSize=18;fontColor=#000000;" parent="aJ0QvmJ6IRqmMJEQwCCZ-2" vertex="1">
          <mxGeometry x="413" y="530" width="120" height="60" as="geometry" />
        </mxCell>
        <mxCell id="aJ0QvmJ6IRqmMJEQwCCZ-1" value="Scrub Data Elements" parent="vECQrhH6S6L_jKQsrYaC-0" visible="0" />
        <mxCell id="7x4SSCg97hen-44l2BKt-2" value="" style="group" parent="aJ0QvmJ6IRqmMJEQwCCZ-1" vertex="1" connectable="0">
          <mxGeometry x="403" y="161" width="147" height="265" as="geometry" />
        </mxCell>
        <mxCell id="WoJVJzB--j_4nprUgPEj-3" value="" style="rounded=1;whiteSpace=wrap;html=1;shadow=0;labelBorderColor=none;strokeColor=default;fontSize=18;fontColor=#000000;" parent="7x4SSCg97hen-44l2BKt-2" vertex="1">
          <mxGeometry y="15" width="147" height="250" as="geometry" />
        </mxCell>
        <mxCell id="sCKVypPQqQM7mhlRXmda-0" value="Request/&lt;br&gt;Response" style="rounded=1;whiteSpace=wrap;html=1;shadow=0;labelBorderColor=none;strokeColor=default;fontSize=18;fontColor=#000000;" parent="7x4SSCg97hen-44l2BKt-2" vertex="1">
          <mxGeometry x="11" y="45" width="120" height="60" as="geometry" />
        </mxCell>
        <mxCell id="sCKVypPQqQM7mhlRXmda-1" value="Asynchronous" style="rounded=1;whiteSpace=wrap;html=1;shadow=0;labelBorderColor=none;strokeColor=default;fontSize=18;fontColor=#000000;" parent="7x4SSCg97hen-44l2BKt-2" vertex="1">
          <mxGeometry x="11" y="184" width="120" height="60" as="geometry" />
        </mxCell>
        <mxCell id="7x4SSCg97hen-44l2BKt-0" value="Interfaces" style="text;html=1;align=center;verticalAlign=middle;whiteSpace=wrap;rounded=1;fillColor=#FFFFFF;strokeColor=none;gradientColor=#FFFFFF;" parent="7x4SSCg97hen-44l2BKt-2" vertex="1">
          <mxGeometry x="32" width="80" height="30" as="geometry" />
        </mxCell>
        <mxCell id="7x4SSCg97hen-44l2BKt-3" value="" style="group" parent="aJ0QvmJ6IRqmMJEQwCCZ-1" vertex="1" connectable="0">
          <mxGeometry x="570" y="162" width="410" height="264" as="geometry" />
        </mxCell>
        <mxCell id="QoRhtREtSMuhxjiwsaU2-0" value="" style="rounded=1;whiteSpace=wrap;html=1;shadow=0;labelBorderColor=none;strokeColor=default;fontSize=18;fontColor=#000000;" parent="7x4SSCg97hen-44l2BKt-3" vertex="1">
          <mxGeometry y="14" width="410" height="250" as="geometry" />
        </mxCell>
        <mxCell id="WKvfVJkwNvhVaHAh-ljj-0" value="Detect PII/Sensitive" style="rounded=1;whiteSpace=wrap;html=1;shadow=0;labelBorderColor=none;strokeColor=default;fontSize=18;fontColor=#000000;" parent="7x4SSCg97hen-44l2BKt-3" vertex="1">
          <mxGeometry x="29" y="39" width="120" height="60" as="geometry" />
        </mxCell>
        <mxCell id="WKvfVJkwNvhVaHAh-ljj-1" value="Replace PII/Sensitive" style="rounded=1;whiteSpace=wrap;html=1;shadow=0;labelBorderColor=none;strokeColor=default;fontSize=18;fontColor=#000000;" parent="7x4SSCg97hen-44l2BKt-3" vertex="1">
          <mxGeometry x="255" y="39" width="120" height="60" as="geometry" />
        </mxCell>
        <mxCell id="WKvfVJkwNvhVaHAh-ljj-2" value="Store Replacement&lt;br&gt;Data" style="rounded=1;whiteSpace=wrap;html=1;shadow=0;labelBorderColor=none;strokeColor=default;fontSize=18;fontColor=#000000;" parent="7x4SSCg97hen-44l2BKt-3" vertex="1">
          <mxGeometry x="28" y="184" width="120" height="60" as="geometry" />
        </mxCell>
        <mxCell id="evHc9JdPxS25grD69CpZ-0" value="Store/Output&lt;br&gt;Scrubbed Data" style="rounded=1;whiteSpace=wrap;html=1;shadow=0;labelBorderColor=none;strokeColor=default;fontSize=18;fontColor=#000000;" parent="7x4SSCg97hen-44l2BKt-3" vertex="1">
          <mxGeometry x="255" y="184" width="120" height="60" as="geometry" />
        </mxCell>
        <mxCell id="7x4SSCg97hen-44l2BKt-1" value="Data Processing" style="text;html=1;align=center;verticalAlign=middle;whiteSpace=wrap;rounded=1;fillColor=#FFFFFF;strokeColor=none;gradientColor=#FFFFFF;" parent="7x4SSCg97hen-44l2BKt-3" vertex="1">
          <mxGeometry x="142" width="110" height="30" as="geometry" />
        </mxCell>
        <mxCell id="_N0zJq4zsGdLo24JYFob-0" style="edgeStyle=orthogonalEdgeStyle;rounded=0;orthogonalLoop=1;jettySize=auto;html=1;exitX=0.5;exitY=1;exitDx=0;exitDy=0;" parent="aJ0QvmJ6IRqmMJEQwCCZ-1" source="WoJVJzB--j_4nprUgPEj-0" target="WoJVJzB--j_4nprUgPEj-0" edge="1">
          <mxGeometry relative="1" as="geometry" />
        </mxCell>
        <mxCell id="dNKVg5YqKzPiaZJYBdvy-0" value="&lt;font style=&quot;font-size: 18px;&quot; color=&quot;#009900&quot;&gt;Scrubbed&amp;nbsp;&lt;br&gt;Data&lt;br&gt;&lt;/font&gt;" style="text;html=1;strokeColor=none;fillColor=none;align=center;verticalAlign=middle;whiteSpace=wrap;rounded=0;shadow=0;labelBorderColor=none;fontSize=18;fontColor=#000000;" parent="aJ0QvmJ6IRqmMJEQwCCZ-1" vertex="1">
          <mxGeometry x="147" y="711.0034693877551" width="160" height="79.10204081632654" as="geometry" />
        </mxCell>
      </root>
    </mxGraphModel>
  </diagram>
  <diagram id="BXo77lAgG9FU17EozOgL" name="Parking Lot">
    <mxGraphModel dx="1426" dy="823" grid="1" gridSize="10" guides="1" tooltips="1" connect="1" arrows="1" fold="1" page="1" pageScale="1" pageWidth="850" pageHeight="1100" math="0" shadow="0">
      <root>
        <mxCell id="0" />
        <mxCell id="1" parent="0" />
        <mxCell id="5N7ZbJTw_4b1dOMRKxE2-1" value="&lt;h1&gt;Toby Fotherby&lt;/h1&gt;&lt;p&gt;Sr. AI/ML Specialist Solutions Architect&lt;/p&gt;&lt;p&gt;fotherby@amazon.com&lt;/p&gt;" style="text;html=1;strokeColor=none;fillColor=none;spacing=5;spacingTop=-20;whiteSpace=wrap;overflow=hidden;rounded=0;" parent="1" vertex="1">
          <mxGeometry x="770" y="20" width="240" height="120" as="geometry" />
        </mxCell>
        <mxCell id="5N7ZbJTw_4b1dOMRKxE2-3" value="&lt;h1&gt;Parking lot / Follow-up&lt;/h1&gt;&lt;h1&gt;&lt;ul&gt;&lt;li&gt;&lt;font style=&quot;font-size: 18px;&quot;&gt;&lt;span style=&quot;font-weight: normal;&quot;&gt;Lorem ipsum ...&lt;/span&gt;&lt;br&gt;&lt;/font&gt;&lt;/li&gt;&lt;li&gt;&lt;span style=&quot;font-weight: 400;&quot;&gt;&lt;font style=&quot;font-size: 18px;&quot;&gt;Lorem ipsum ...&lt;/font&gt;&lt;/span&gt;&lt;br&gt;&lt;/li&gt;&lt;/ul&gt;&lt;/h1&gt;" style="text;html=1;strokeColor=default;fillColor=none;spacing=5;spacingTop=-20;whiteSpace=wrap;overflow=hidden;rounded=0;shadow=0;" parent="1" vertex="1">
          <mxGeometry x="40" y="160" width="870" height="320" as="geometry" />
        </mxCell>
        <mxCell id="livCL_kwqiCR4SOGYSZk-3" value="&lt;h1&gt;Other: requirements, objectives, etc,&lt;/h1&gt;&lt;h1&gt;&lt;ul&gt;&lt;li&gt;&lt;font style=&quot;font-size: 18px;&quot;&gt;&lt;span style=&quot;font-weight: normal;&quot;&gt;Lorem ipsum ...&lt;/span&gt;&lt;br&gt;&lt;/font&gt;&lt;/li&gt;&lt;li&gt;&lt;span style=&quot;font-weight: 400;&quot;&gt;&lt;font style=&quot;font-size: 18px;&quot;&gt;Lorem ipsum ...&lt;/font&gt;&lt;/span&gt;&lt;br&gt;&lt;/li&gt;&lt;/ul&gt;&lt;/h1&gt;" style="text;html=1;strokeColor=default;fillColor=none;spacing=5;spacingTop=-20;whiteSpace=wrap;overflow=hidden;rounded=0;" parent="1" vertex="1">
          <mxGeometry x="40" y="523" width="870" height="240" as="geometry" />
        </mxCell>
        <mxCell id="LhIUnqyAB-YjuX6nunMf-1" value="&lt;font style=&quot;font-size: 16px;&quot;&gt;2022-12-01&lt;/font&gt;" style="text;html=1;strokeColor=none;fillColor=none;align=left;verticalAlign=middle;whiteSpace=wrap;rounded=0;dashed=1;labelBackgroundColor=#FFFFFF;fontSize=24;fontColor=#000000;" parent="1" vertex="1">
          <mxGeometry x="770" y="116" width="143" height="30" as="geometry" />
        </mxCell>
        <mxCell id="LhIUnqyAB-YjuX6nunMf-2" value="&lt;font style=&quot;font-size: 32px;&quot;&gt;AnyCompany/AWS&lt;/font&gt;" style="text;html=1;strokeColor=none;fillColor=none;align=left;verticalAlign=middle;whiteSpace=wrap;rounded=0;shadow=0;fontSize=18;fontStyle=1" parent="1" vertex="1">
          <mxGeometry x="40" y="53" width="329" height="29" as="geometry" />
        </mxCell>
      </root>
    </mxGraphModel>
  </diagram>
</mxfile>
